<?xml version="1.0" standalone="no"?>
<!DOCTYPE svg PUBLIC "-//W3C//DTD SVG 20010904//EN"
 "http://www.w3.org/TR/2001/REC-SVG-20010904/DTD/svg10.dtd">
<svg version="1.0" xmlns="http://www.w3.org/2000/svg"
 width="1080.000000pt" height="1080.000000pt" viewBox="0 0 1080.000000 1080.000000"
 preserveAspectRatio="xMidYMid meet">
<metadata>
Created by potrace 1.14, written by Peter Selinger 2001-2017
</metadata>
<g transform="translate(0.000000,1080.000000) scale(0.100000,-0.100000)"
fill="#000000" stroke="none">
<path d="M2361 8625 c6 -57 17 -95 42 -148 l35 -72 1 40 c1 47 -44 201 -68
234 -16 21 -17 19 -10 -54z"/>
<path d="M5287 8666 c-32 -14 -67 -32 -76 -40 -14 -13 -32 -15 -93 -10 -70 6
-79 5 -126 -21 -28 -15 -62 -40 -77 -55 -25 -26 -30 -27 -94 -22 -86 6 -129
-8 -180 -60 -45 -44 -76 -127 -69 -179 4 -25 1 -29 -19 -29 -37 0 -90 -26
-107 -53 -60 -91 -96 -268 -78 -388 25 -168 80 -256 174 -279 30 -8 49 -19 53
-30 7 -24 64 -50 107 -50 18 0 79 9 136 20 185 36 335 23 403 -35 43 -35 133
-79 193 -94 53 -13 216 -16 263 -5 15 4 51 17 80 31 85 39 139 138 132 241 -4
46 -2 52 16 52 11 1 31 7 45 15 16 9 40 12 67 8 79 -11 172 45 189 112 3 14
17 28 35 34 72 25 122 119 123 231 1 69 -3 83 -38 154 -45 92 -125 177 -206
220 -30 16 -67 44 -82 62 -33 38 -95 69 -157 79 -23 4 -66 21 -94 39 -43 27
-60 31 -116 31 -36 0 -78 -3 -92 -7 -20 -6 -32 -2 -50 13 -36 31 -63 39 -137
39 -47 0 -84 -8 -125 -24z m224 -23 c31 -19 40 -36 41 -82 1 -31 -25 -81 -42
-81 -15 0 -70 -80 -70 -102 0 -34 27 -18 44 26 19 50 58 83 73 63 5 -7 15 -26
22 -44 16 -39 46 -67 61 -58 8 5 6 14 -8 29 -31 34 -42 61 -49 127 -6 57 -4
63 18 80 32 25 95 24 161 -2 29 -11 55 -22 57 -25 2 -2 -3 -14 -12 -27 -28
-44 -31 -90 -7 -145 l22 -51 -30 -31 c-17 -16 -33 -43 -37 -60 -4 -16 -13 -30
-20 -30 -18 0 -105 -98 -106 -119 0 -9 -10 14 -23 51 -43 128 -136 182 -223
129 l-31 -20 -12 30 c-7 16 -28 43 -47 59 -40 36 -83 39 -131 10 l-34 -21 -44
41 c-34 31 -51 40 -79 40 -52 0 -95 -25 -95 -55 0 -30 5 -31 37 -5 38 30 85
26 122 -10 16 -17 33 -39 36 -50 8 -25 31 -26 38 -1 2 11 19 27 36 35 27 14
35 15 65 2 40 -17 66 -51 66 -87 0 -32 9 -59 20 -59 4 0 24 16 44 35 31 29 45
35 81 35 63 0 107 -51 129 -150 28 -120 47 -140 67 -67 6 23 20 59 32 80 23
42 69 77 75 59 33 -101 133 -174 172 -127 10 12 4 16 -34 26 -65 16 -116 76
-116 134 0 47 15 66 74 90 l38 16 -25 27 c-54 58 -72 128 -43 168 31 42 161
10 219 -54 18 -19 17 -20 -15 -31 -44 -15 -80 -40 -73 -50 3 -5 21 -1 41 9 56
29 144 11 217 -45 117 -90 179 -288 126 -405 -20 -46 -76 -103 -94 -97 -5 2
-13 28 -16 58 -7 66 -19 89 -77 151 -45 48 -45 49 -43 112 2 59 0 65 -31 99
-35 37 -93 56 -125 41 -14 -5 -8 -9 22 -14 86 -13 121 -59 110 -141 -7 -47 -5
-50 38 -101 71 -84 90 -128 85 -198 -5 -67 -24 -101 -79 -138 -25 -17 -43 -22
-69 -19 -84 11 -190 89 -231 169 -11 22 -19 58 -19 88 0 56 -15 60 -25 6 -12
-59 11 -113 73 -175 31 -31 71 -66 87 -78 l30 -22 -41 0 c-37 -1 -44 3 -69 39
-86 124 -224 194 -381 194 -78 0 -80 1 -76 22 2 12 -1 31 -7 42 -9 17 -8 22
10 27 45 15 74 107 49 156 -19 34 -30 20 -30 -39 0 -32 -5 -63 -12 -70 -13
-13 -58 -16 -106 -6 -26 5 -29 9 -20 24 16 25 1 88 -27 116 -31 31 -119 36
-113 7 2 -11 18 -20 43 -25 70 -15 91 -53 60 -108 -20 -35 -19 -37 25 -43 43
-5 88 -29 96 -51 11 -28 -16 -66 -64 -90 -26 -13 -54 -32 -61 -40 -22 -27 -42
-20 -31 10 14 35 12 84 -4 112 -17 32 -65 62 -98 62 -22 0 -28 5 -28 21 0 30
-56 79 -91 79 -16 0 -29 -4 -29 -10 0 -5 11 -10 24 -10 35 0 65 -30 74 -75 6
-29 13 -39 25 -37 9 1 32 -4 51 -12 45 -19 56 -64 32 -132 -8 -26 -14 -50 -11
-54 2 -4 23 -10 46 -13 64 -8 84 -37 80 -115 -1 -13 -14 -37 -31 -54 -30 -30
-38 -48 -21 -48 25 0 44 16 63 53 27 54 21 118 -16 156 -14 15 -26 31 -26 37
0 18 83 63 137 74 82 18 199 -3 296 -52 28 -14 37 -24 37 -44 0 -34 -24 -78
-56 -102 -37 -26 -26 -47 32 -64 63 -18 105 -69 112 -136 4 -44 1 -51 -27 -79
-87 -87 -292 -88 -460 -3 -125 63 -182 128 -206 232 -10 46 -14 51 -49 63 -22
8 -43 20 -47 27 -14 21 -10 93 6 114 17 22 20 54 5 54 -6 0 -22 -12 -35 -26
-20 -21 -25 -38 -25 -76 0 -63 23 -103 70 -122 33 -13 38 -20 49 -71 7 -31 21
-65 31 -75 19 -19 16 -19 -89 -19 -103 0 -192 -10 -289 -32 -50 -11 -112 2
-133 27 -11 14 -8 21 22 49 26 24 49 34 86 39 66 8 73 25 36 93 l-28 52 21 28
c12 15 26 28 32 28 6 0 25 -22 42 -48 30 -47 89 -85 110 -72 18 11 10 21 -31
39 -32 14 -46 28 -61 63 -27 62 -18 103 38 163 l44 47 -38 40 c-72 75 -96 164
-73 274 23 108 94 219 164 255 35 18 127 35 155 27 19 -5 19 -6 -4 -46 -26
-45 -31 -81 -12 -75 7 3 27 29 44 59 45 75 73 99 146 120 82 23 161 24 199 2z
m-668 -152 c17 -6 16 -9 -7 -44 -14 -20 -28 -53 -32 -74 -3 -21 -13 -58 -21
-83 -9 -28 -12 -61 -8 -86 l6 -41 -38 10 c-92 24 -153 -17 -161 -108 -3 -37
-1 -55 7 -55 6 0 11 17 11 40 0 54 17 87 53 100 76 26 130 2 168 -73 12 -23
31 -52 42 -65 l21 -22 -27 -28 c-14 -15 -35 -48 -47 -74 -15 -34 -27 -48 -40
-48 -15 0 -20 7 -20 28 0 36 -22 66 -59 82 -50 20 -97 -10 -148 -95 -46 -77
-53 -105 -25 -105 12 0 27 19 47 60 51 108 102 134 142 74 12 -19 14 -38 10
-82 -5 -51 -1 -85 18 -147 5 -17 -1 -22 -41 -34 -26 -8 -61 -27 -79 -43 -38
-32 -54 -34 -101 -12 -101 48 -156 244 -120 425 32 155 106 254 173 228 38
-14 44 -3 37 60 -11 102 49 186 152 210 48 11 64 12 87 2z m957 -721 c15 -11
41 -41 56 -68 24 -40 29 -58 28 -117 0 -39 -6 -83 -14 -100 l-14 -30 -3 25
c-14 101 -35 133 -115 175 l-39 21 31 29 c19 19 30 39 30 57 0 33 3 34 40 8z"/>
<path d="M5405 7700 c-4 -6 5 -10 20 -10 27 0 45 -29 45 -76 0 -27 7 -30 29
-10 27 23 68 28 85 10 30 -29 31 -63 2 -93 -26 -27 -34 -51 -16 -51 5 0 21 12
35 27 33 36 36 112 5 143 -26 26 -68 36 -91 21 -24 -14 -29 -14 -29 3 0 31
-70 60 -85 36z"/>
<path d="M2737 8603 c-34 -50 -75 -140 -83 -184 -6 -33 -5 -32 39 26 36 47 87
159 87 190 0 16 -20 0 -43 -32z"/>
<path d="M3136 8471 c-4 -6 -22 -18 -40 -26 -54 -26 -169 -155 -138 -155 36 0
207 168 189 186 -3 3 -8 1 -11 -5z"/>
<path d="M2060 8465 c0 -29 93 -131 143 -157 l39 -19 -30 43 c-48 70 -152 161
-152 133z"/>
<path d="M9135 8400 c-11 -5 -63 -26 -115 -46 -52 -20 -167 -69 -255 -109 -88
-39 -222 -98 -298 -130 -76 -31 -136 -59 -134 -61 7 -7 319 102 430 149 108
46 421 207 402 206 -5 0 -19 -4 -30 -9z"/>
<path d="M9184 8356 c-3 -19 -1 -43 5 -53 8 -14 10 -8 11 35 0 60 -6 67 -16
18z"/>
<path d="M9075 8318 c-100 -62 -171 -112 -225 -158 -30 -25 -100 -78 -155
-117 -55 -39 -116 -88 -135 -109 l-35 -38 35 23 c19 12 57 34 84 49 124 69
292 198 451 344 48 45 45 46 -20 6z"/>
<path d="M9095 8260 c-46 -69 -62 -86 -72 -78 -11 9 -13 5 -11 -18 3 -45 -10
-59 -33 -38 -20 18 -23 12 -10 -21 5 -12 4 -25 -2 -33 -8 -10 -14 -9 -29 5
-19 17 -20 17 -13 -18 9 -50 -7 -56 -40 -17 -24 30 -26 31 -20 8 4 -14 14 -36
22 -49 20 -31 3 -48 -22 -21 -10 11 -22 20 -26 20 -11 0 9 -53 23 -61 6 -4 4
-17 -6 -38 -17 -32 -36 -41 -36 -18 0 8 -19 29 -42 48 l-42 33 23 -39 c13 -22
33 -48 44 -58 18 -15 18 -21 7 -45 -12 -26 -13 -26 -24 -7 -6 10 -30 40 -54
65 l-43 45 25 -52 c14 -28 39 -61 55 -72 l29 -21 39 47 c22 27 50 64 63 83 13
19 43 58 67 87 24 28 61 80 82 115 36 60 114 228 108 234 -1 2 -29 -37 -62
-86z"/>
<path d="M2545 8303 c-57 -13 -143 -46 -165 -64 l-25 -20 41 20 c64 31 163 45
225 32 115 -25 205 -101 263 -221 29 -60 31 -73 31 -170 -1 -87 -5 -117 -26
-175 -28 -76 -73 -154 -92 -159 -7 -2 -58 -18 -114 -36 -94 -29 -107 -31 -151
-21 -102 25 -212 111 -264 208 -37 68 -58 153 -59 243 -1 68 -2 72 -11 40 -5
-19 -8 -78 -6 -130 3 -76 9 -106 30 -150 38 -82 98 -144 178 -184 90 -45 156
-53 260 -32 110 22 109 22 116 -24 4 -22 11 -40 15 -40 5 0 7 -11 3 -25 -4
-16 -2 -27 8 -30 8 -3 14 -22 14 -46 1 -22 7 -46 13 -52 10 -9 11 -5 5 18 -9
38 -9 37 0 58 5 9 5 25 0 35 -4 9 -6 21 -5 26 1 4 -2 13 -7 20 -5 6 -12 31
-16 55 -6 40 -4 46 33 86 49 53 106 171 122 253 30 156 -34 325 -159 417 -74
55 -185 84 -257 68z"/>
<path d="M2329 8203 c-13 -16 -12 -17 4 -4 16 13 21 21 13 21 -2 0 -10 -8 -17
-17z"/>
<path d="M1828 8147 c15 -17 175 -87 200 -87 12 0 10 6 -9 26 -34 37 -85 60
-149 69 -49 7 -53 6 -42 -8z"/>
<path d="M3245 8141 c-16 -4 -43 -15 -60 -23 -36 -19 -84 -68 -66 -68 23 0
170 61 193 80 l23 19 -30 0 c-16 -1 -43 -4 -60 -8z"/>
<path d="M2657 7985 c-38 -48 -62 -62 -169 -99 -65 -22 -93 -37 -93 -48 0 -9
29 -35 65 -59 40 -27 83 -68 113 -107 26 -35 47 -60 47 -56 0 24 -78 139 -116
172 l-47 40 54 17 c30 9 73 28 97 40 l42 24 1 -112 c0 -62 4 -132 8 -157 6
-39 8 -32 15 61 4 59 11 135 17 170 5 35 12 83 15 107 8 54 -10 56 -49 7z"/>
<path d="M9173 7925 c0 -27 2 -38 4 -22 2 15 2 37 0 50 -2 12 -4 0 -4 -28z"/>
<path d="M8290 7916 c0 -2 29 -14 64 -26 101 -33 111 -45 130 -148 9 -48 19
-132 23 -185 4 -61 11 -101 19 -108 15 -12 17 -10 154 145 47 53 87 96 90 96
3 0 42 -23 85 -51 122 -77 273 -151 303 -147 31 3 30 -11 15 218 l-9 135 -8
-118 c-5 -65 -6 -136 -3 -158 3 -21 2 -41 -2 -44 -10 -5 -188 95 -266 150 -33
23 -85 54 -116 68 -34 16 -72 43 -97 73 -23 26 -42 44 -42 41 0 -3 18 -38 39
-78 37 -68 38 -74 24 -96 -20 -30 -29 -23 -83 68 -23 38 -44 69 -46 69 -5 0
21 -69 50 -133 l27 -57 -43 -50 -43 -50 -16 98 c-27 163 -52 233 -86 247 -10
4 -43 13 -73 21 -30 8 -63 17 -72 20 -10 3 -18 3 -18 0z"/>
<path d="M6716 7812 c-2 -4 15 -12 40 -18 47 -11 60 0 18 16 -31 12 -51 13
-58 2z"/>
<path d="M1920 7800 c-58 -10 -130 -39 -130 -52 0 -16 121 -1 185 24 84 32 56
47 -55 28z"/>
<path d="M3106 7793 c-96 -29 -1 -44 137 -21 70 11 71 12 42 24 -40 17 -119
16 -179 -3z"/>
<path d="M4168 7803 c-10 -2 -18 -9 -18 -15 0 -12 49 -2 65 13 9 9 -15 11 -47
2z"/>
<path d="M4071 7769 c-13 -5 -22 -12 -19 -15 8 -8 58 7 58 17 0 11 -8 11 -39
-2z"/>
<path d="M6850 7753 c0 -14 69 -63 74 -54 4 5 -8 21 -25 35 -30 26 -49 33 -49
19z"/>
<path d="M3973 7728 c-34 -16 -28 -28 7 -15 17 6 30 15 30 19 0 10 -10 9 -37
-4z"/>
<path d="M3870 7670 c-16 -13 -20 -20 -10 -19 16 0 50 22 50 33 0 11 -14 6
-40 -14z"/>
<path d="M6960 7653 c0 -11 51 -73 61 -73 18 0 9 27 -19 53 -28 26 -42 33 -42
20z"/>
<path d="M3780 7610 c-14 -10 -22 -21 -19 -24 2 -3 18 6 34 19 35 29 22 33
-15 5z"/>
<path d="M3690 7535 c-13 -14 -19 -25 -14 -25 11 1 54 36 54 44 0 13 -18 5
-40 -19z"/>
<path d="M2124 7529 c-28 -10 -61 -30 -73 -43 l-22 -23 52 8 c71 11 169 80
112 78 -10 0 -41 -9 -69 -20z"/>
<path d="M7050 7534 c0 -17 43 -74 56 -74 19 0 18 4 -8 45 -20 30 -48 47 -48
29z"/>
<path d="M3617 7462 c-10 -10 -17 -22 -17 -26 0 -12 37 13 44 29 8 21 -7 19
-27 -3z"/>
<path d="M2695 7420 c-3 -5 1 -10 9 -10 8 0 18 5 21 10 3 6 -1 10 -9 10 -8 0
-18 -4 -21 -10z"/>
<path d="M2606 7395 c11 -40 58 -150 70 -162 7 -7 14 -18 17 -25 2 -7 7 -11
10 -8 4 3 0 18 -8 33 -13 25 -12 27 8 28 20 1 20 2 2 6 -26 7 -46 34 -41 55 2
9 -3 19 -10 22 -22 8 -38 57 -22 67 8 5 5 8 -10 6 -17 -1 -21 -6 -16 -22z"/>
<path d="M7136 7409 c-8 -17 20 -89 34 -89 19 0 17 16 -5 60 -17 32 -25 41
-29 29z"/>
<path d="M3547 7374 c-25 -33 -11 -46 13 -14 11 14 20 28 20 33 0 14 -15 6
-33 -19z"/>
<path d="M1890 7365 c-7 -9 -11 -17 -9 -20 3 -2 10 5 17 15 14 24 10 26 -8 5z"/>
<path d="M2730 7350 c-8 -5 -12 -11 -9 -14 3 -3 14 1 25 9 21 16 8 20 -16 5z"/>
<path d="M1826 7284 c-10 -14 -16 -28 -13 -30 2 -3 12 7 21 22 10 14 16 28 13
30 -2 3 -12 -7 -21 -22z"/>
<path d="M3492 7285 c-17 -38 -14 -43 8 -15 21 27 25 40 12 40 -5 0 -14 -11
-20 -25z"/>
<path d="M2755 7280 c-3 -5 1 -10 9 -10 8 0 18 5 21 10 3 6 -1 10 -9 10 -8 0
-18 -4 -21 -10z"/>
<path d="M7188 7268 c-8 -21 18 -83 35 -86 15 -3 15 1 2 45 -8 26 -15 49 -15
51 0 8 -19 0 -22 -10z"/>
<path d="M8313 7236 c-26 -27 -31 -45 -7 -26 14 12 39 50 32 50 -2 0 -13 -11
-25 -24z"/>
<path d="M1768 7189 c-9 -16 -14 -29 -9 -29 8 0 34 50 29 56 -2 1 -11 -11 -20
-27z"/>
<path d="M3442 7185 c-14 -31 -15 -35 -4 -35 4 0 13 14 19 30 14 36 1 40 -15
5z"/>
<path d="M8203 7139 c-35 -22 -47 -47 -15 -30 17 9 59 51 51 51 -2 0 -19 -10
-36 -21z"/>
<path d="M7220 7116 c0 -24 12 -46 24 -46 8 0 11 11 8 30 -4 30 -32 43 -32 16z"/>
<path d="M1720 7100 c-6 -11 -9 -26 -7 -33 3 -7 10 1 16 17 14 35 7 47 -9 16z"/>
<path d="M8091 7066 c-13 -7 -20 -16 -15 -19 10 -6 51 20 43 27 -2 2 -15 -1
-28 -8z"/>
<path d="M1680 6996 c-15 -41 -10 -56 6 -17 8 18 13 36 10 39 -3 2 -10 -7 -16
-22z"/>
<path d="M1642 6881 c-7 -18 -7 -31 -2 -31 11 0 25 48 17 56 -2 3 -9 -9 -15
-25z"/>
<path d="M1616 6778 c-8 -32 -7 -40 3 -34 11 7 21 56 11 56 -4 0 -10 -10 -14
-22z"/>
<path d="M1599 6670 c-7 -35 -4 -48 7 -38 3 4 4 21 2 40 l-3 33 -6 -35z"/>
<path d="M8972 6604 c-30 -21 -28 -50 5 -67 l27 -14 -40 -25 c-21 -14 -47 -35
-57 -46 -12 -13 -25 -18 -35 -14 -15 5 -15 4 -3 -11 12 -16 16 -14 50 16 20
18 51 39 69 46 42 18 42 48 -1 64 -25 9 -17 30 16 41 32 12 63 -8 38 -23 -20
-13 -6 -65 15 -57 9 3 41 7 72 7 50 1 53 2 22 8 -19 4 -50 6 -67 4 -35 -3 -40
6 -21 36 26 42 -42 69 -90 35z"/>
<path d="M1593 6555 c0 -22 2 -30 4 -17 2 12 2 30 0 40 -3 9 -5 -1 -4 -23z"/>
<path d="M9196 6525 c-3 -8 -1 -15 4 -15 6 0 10 7 10 15 0 8 -2 15 -4 15 -2 0
-6 -7 -10 -15z"/>
<path d="M9004 6456 c-83 -38 -134 -122 -134 -218 0 -48 30 -138 45 -138 3 0
-2 14 -11 31 -21 41 -21 134 1 184 61 147 250 188 375 81 19 -16 18 -13 -5 13
-65 73 -175 92 -271 47z"/>
<path d="M1592 6440 c0 -19 2 -27 5 -17 2 9 2 25 0 35 -3 9 -5 1 -5 -18z"/>
<path d="M8818 6433 c-8 -10 -18 -25 -22 -33 -4 -8 0 -6 8 5 9 11 24 26 33 33
9 6 12 12 6 12 -5 0 -17 -8 -25 -17z"/>
<path d="M1601 6344 c0 -11 3 -14 6 -6 3 7 2 16 -1 19 -3 4 -6 -2 -5 -13z"/>
<path d="M5905 6298 c-3 -7 -4 -206 -3 -443 l3 -430 80 0 80 0 3 358 2 357
275 0 275 0 2 -357 3 -358 83 -3 82 -3 -2 443 -3 443 -438 3 c-345 2 -439 0
-442 -10z"/>
<path d="M8980 6306 c0 -2 30 -23 68 -48 l67 -44 80 32 c87 36 84 42 -12 19
-61 -14 -63 -14 -132 15 -39 16 -71 28 -71 26z"/>
<path d="M3040 6220 l0 -80 385 0 385 0 0 80 0 80 -385 0 -385 0 0 -80z"/>
<path d="M3950 5860 l0 -440 80 0 80 0 2 423 c2 232 1 430 -1 440 -3 14 -15
17 -82 17 l-79 0 0 -440z"/>
<path d="M4307 6294 c-3 -3 -6 -123 -7 -265 l-1 -258 24 -6 c12 -4 50 -5 82
-3 l60 3 3 268 2 267 -78 0 c-43 0 -81 -3 -85 -6z"/>
<path d="M4670 5860 l0 -440 80 0 80 0 0 440 0 440 -80 0 -80 0 0 -440z"/>
<path d="M4970 6040 l0 -260 305 0 306 0 -3 -97 -3 -98 -295 -2 -295 -2 -3
-81 -3 -80 383 2 383 3 3 258 2 257 -305 0 -305 0 0 100 0 100 300 0 300 0 0
80 0 80 -385 0 -385 0 0 -260z"/>
<path d="M6930 6220 l0 -80 385 0 385 0 0 80 0 80 -385 0 -385 0 0 -80z"/>
<path d="M8815 6290 c-3 -5 -1 -10 4 -10 6 0 11 5 11 10 0 6 -2 10 -4 10 -3 0
-8 -4 -11 -10z"/>
<path d="M9399 6225 c-5 -66 -22 -117 -51 -157 -10 -15 -8 -22 15 -46 26 -27
35 -52 19 -52 -5 0 -19 11 -32 25 -29 31 -40 31 -86 0 -47 -32 -95 -45 -166
-45 l-57 0 -8 -42 c-6 -27 -14 -43 -23 -43 -8 0 -14 5 -13 12 17 86 16 89 -16
103 -44 18 -109 84 -132 133 -10 23 -19 35 -19 27 0 -33 61 -119 110 -155 56
-41 54 -37 40 -84 -11 -41 1 -61 36 -61 20 0 26 8 34 43 l11 42 65 1 c51 1 77
7 125 32 l61 32 25 -20 c33 -26 59 -25 74 1 9 18 6 26 -20 53 -28 28 -29 34
-17 51 24 35 38 98 34 160 l-3 60 -6 -70z"/>
<path d="M2338 6273 c12 -2 30 -2 40 0 9 3 -1 5 -23 4 -22 0 -30 -2 -17 -4z"/>
<path d="M2241 6259 c-18 -6 -31 -13 -28 -16 8 -8 67 7 67 18 0 5 -1 9 -2 8
-2 0 -18 -5 -37 -10z"/>
<path d="M2137 6214 c-16 -9 -27 -18 -24 -20 7 -7 57 18 57 28 0 10 1 10 -33
-8z"/>
<path d="M8821 6174 c0 -11 3 -14 6 -6 3 7 2 16 -1 19 -3 4 -6 -2 -5 -13z"/>
<path d="M9322 6138 c-44 -90 -145 -146 -247 -135 -32 3 -43 2 -30 -3 42 -18
134 -11 183 14 58 29 75 48 102 109 28 64 21 77 -8 15z"/>
<path d="M2047 6162 c-25 -16 -36 -32 -19 -32 10 1 56 40 51 45 -2 2 -17 -4
-32 -13z"/>
<path d="M1950 6085 c-13 -14 -19 -25 -13 -25 5 0 20 11 33 25 13 14 19 25 13
25 -5 0 -20 -11 -33 -25z"/>
<path d="M8802 6083 c-6 -2 -10 -9 -7 -13 7 -11 35 -2 35 11 0 10 -8 10 -28 2z"/>
<path d="M8940 6065 c13 -14 26 -25 28 -25 3 0 -5 11 -18 25 -13 14 -26 25
-28 25 -3 0 5 -11 18 -25z"/>
<path d="M1750 6066 c0 -2 8 -10 18 -17 15 -13 16 -12 3 4 -13 16 -21 21 -21
13z"/>
<path d="M8728 6044 c-30 -16 -35 -24 -15 -24 14 1 52 28 46 34 -2 2 -16 -2
-31 -10z"/>
<path d="M7235 6038 c-3 -7 -4 -148 -2 -313 l2 -300 83 -3 82 -3 0 316 0 315
-80 0 c-55 0 -82 -4 -85 -12z"/>
<path d="M1877 6004 c-25 -33 -11 -46 13 -14 11 14 20 28 20 33 0 14 -15 6
-33 -19z"/>
<path d="M8640 5990 c-14 -11 -20 -20 -14 -20 14 0 50 27 44 33 -3 3 -16 -3
-30 -13z"/>
<path d="M8559 5931 c-13 -11 -19 -20 -13 -21 15 0 50 27 43 34 -3 4 -17 -2
-30 -13z"/>
<path d="M1825 5911 c-9 -19 -11 -32 -5 -36 6 -3 15 6 20 21 6 15 13 31 16 35
3 5 1 9 -5 9 -6 0 -17 -13 -26 -29z"/>
<path d="M3040 5860 l0 -80 225 0 c124 0 228 -1 233 -2 4 -2 8 34 10 80 l3 82
-236 0 -235 0 0 -80z"/>
<path d="M6162 5859 l3 -81 180 1 c99 0 184 0 188 1 4 0 7 35 5 78 l-3 77
-188 3 -188 2 3 -81z"/>
<path d="M8495 5881 c-6 -11 9 -23 19 -14 9 9 7 23 -3 23 -6 0 -12 -4 -16 -9z"/>
<path d="M1797 5833 c-11 -20 -17 -63 -8 -63 10 0 26 58 18 66 -3 3 -7 2 -10
-3z"/>
<path d="M1766 5707 c-8 -31 -7 -47 3 -47 11 0 20 59 10 65 -3 3 -9 -5 -13
-18z"/>
<path d="M1760 5586 c0 -20 5 -36 10 -36 6 0 10 13 10 29 0 17 -4 33 -10 36
-6 4 -10 -8 -10 -29z"/>
<path d="M3040 5500 l0 -80 385 0 385 0 0 80 0 80 -385 0 -385 0 0 -80z"/>
<path d="M1770 5478 c0 -21 5 -38 10 -38 13 0 13 40 0 60 -7 11 -10 5 -10 -22z"/>
<path d="M1794 5375 c4 -16 12 -34 18 -40 7 -7 8 -1 4 20 -4 17 -12 35 -18 40
-7 7 -8 1 -4 -20z"/>
<path d="M1830 5284 c0 -11 7 -29 16 -40 14 -18 15 -18 8 6 -3 14 -10 32 -15
40 -7 12 -8 11 -9 -6z"/>
<path d="M8941 5270 c0 -8 4 -24 9 -35 l9 -20 0 20 c0 11 -4 27 -9 35 -9 13
-10 13 -9 0z"/>
<path d="M1885 5159 c9 -17 19 -29 21 -26 7 7 -18 57 -28 57 -5 0 -1 -14 7
-31z"/>
<path d="M8968 5150 c2 -17 9 -33 15 -37 6 -4 8 2 4 18 -4 13 -7 30 -7 37 0 6
-4 12 -8 12 -5 0 -7 -14 -4 -30z"/>
<path d="M1930 5094 c0 -7 9 -22 20 -35 25 -31 26 -12 0 21 -11 14 -20 20 -20
14z"/>
<path d="M3890 4957 c0 -90 4 -137 12 -145 16 -16 261 -17 290 -1 14 8 23 8
31 0 8 -8 115 -11 339 -11 402 0 368 -15 368 165 0 103 -3 125 -15 125 -12 0
-15 -23 -17 -127 l-3 -128 -144 -3 c-129 -2 -143 -1 -137 14 22 59 12 115 -25
134 -30 16 -78 11 -99 -10 -24 -24 -27 -86 -4 -118 l15 -22 -128 0 c-87 0
-133 4 -141 12 -7 7 -12 36 -12 65 0 29 -4 53 -10 53 -5 0 -10 -21 -10 -46 0
-82 -3 -84 -149 -84 -94 0 -130 3 -134 13 -2 6 -3 65 -1 130 2 96 0 117 -12
117 -11 0 -14 -24 -14 -133z m690 -7 c38 -38 14 -125 -30 -113 -26 7 -60 50
-60 74 0 23 34 59 55 59 8 0 24 -9 35 -20z"/>
<path d="M4980 4945 c0 -90 4 -145 10 -145 6 0 10 55 10 145 0 90 -4 145 -10
145 -6 0 -10 -55 -10 -145z"/>
<path d="M5422 4948 c4 -188 23 -190 23 -1 0 102 -3 137 -13 141 -10 3 -12
-27 -10 -140z"/>
<path d="M5560 4961 c0 -104 3 -133 16 -145 22 -23 275 -23 294 -1 11 13 15
13 33 0 58 -40 127 2 127 78 0 62 -29 97 -80 97 -51 0 -80 -35 -80 -95 0 -24
-6 -48 -14 -54 -9 -8 -55 -11 -137 -9 l-124 3 -3 128 c-2 104 -5 127 -17 127
-12 0 -15 -22 -15 -129z m418 -7 c17 -11 22 -25 22 -58 0 -48 -13 -66 -50 -66
-37 0 -50 18 -50 66 0 33 5 47 22 58 12 9 25 16 28 16 3 0 16 -7 28 -16z"/>
<path d="M6190 4977 c0 -136 -8 -153 -72 -143 -29 5 -38 3 -38 -8 0 -31 80
-36 109 -7 24 24 33 82 29 185 -2 52 -7 81 -15 84 -10 3 -13 -24 -13 -111z"/>
<path d="M6262 4948 c2 -87 7 -143 13 -143 6 0 11 56 13 143 2 123 0 142 -13
142 -13 0 -15 -19 -13 -142z"/>
<path d="M6510 4957 c0 -90 4 -137 12 -145 16 -16 279 -17 295 -1 8 8 17 8 31
0 27 -14 247 -14 274 0 14 8 23 8 31 0 7 -7 82 -11 220 -11 l209 0 -6 28 c-3
15 -10 51 -16 81 -5 29 -15 59 -21 67 -13 15 -76 19 -98 5 -21 -14 -4 -31 22
-22 49 17 63 2 76 -81 l8 -48 -192 0 c-217 0 -205 -5 -205 81 0 27 -4 49 -10
49 -5 0 -10 -8 -11 -17 -2 -64 -6 -90 -13 -101 -10 -17 -247 -17 -264 0 -7 7
-12 36 -12 65 0 29 -4 53 -10 53 -5 0 -10 -21 -10 -46 0 -83 -3 -84 -150 -84
l-130 0 0 130 c0 109 -2 130 -15 130 -13 0 -15 -21 -15 -133z"/>
<path d="M7612 4948 c2 -102 6 -143 16 -146 9 -3 12 30 12 142 0 124 -2 146
-15 146 -13 0 -15 -20 -13 -142z"/>
<path d="M6107 5073 c-4 -3 -7 -51 -7 -105 0 -80 3 -98 15 -98 12 0 15 18 15
105 0 96 -5 117 -23 98z"/>
<path d="M8987 5038 c8 -46 13 -48 13 -5 0 21 -4 37 -10 37 -5 0 -7 -14 -3
-32z"/>
<path d="M4512 5039 c2 -6 8 -10 13 -10 5 0 11 4 13 10 2 6 -4 11 -13 11 -9 0
-15 -5 -13 -11z"/>
<path d="M4550 5034 c0 -9 5 -14 12 -12 18 6 21 28 4 28 -9 0 -16 -7 -16 -16z"/>
<path d="M7482 5038 c6 -18 28 -21 28 -4 0 9 -7 16 -16 16 -9 0 -14 -5 -12
-12z"/>
<path d="M7107 5013 c-12 -11 -8 -23 8 -23 8 0 15 7 15 15 0 16 -12 20 -23 8z"/>
<path d="M7147 5013 c-12 -11 -8 -23 8 -23 8 0 15 7 15 15 0 16 -12 20 -23 8z"/>
<path d="M1990 5007 c0 -5 9 -20 20 -34 11 -14 20 -21 20 -15 0 12 -39 60 -40
49z"/>
<path d="M5227 5004 c-8 -8 1 -24 14 -24 5 0 9 7 9 15 0 15 -12 20 -23 9z"/>
<path d="M5262 4998 c6 -18 28 -21 28 -4 0 9 -7 16 -16 16 -9 0 -14 -5 -12
-12z"/>
<path d="M3787 4994 c-3 -4 0 -19 8 -35 18 -34 22 -106 8 -120 -6 -6 -21 -9
-34 -7 -22 3 -24 8 -27 66 -4 77 -25 81 -30 6 -4 -54 -15 -74 -43 -74 -17 0
-19 8 -19 66 0 48 -3 65 -12 62 -8 -3 -14 -28 -16 -66 l-3 -62 -154 0 -154 0
-3 78 -3 77 -41 3 c-60 4 -74 -14 -74 -94 l0 -64 -50 0 c-62 0 -90 23 -90 75
0 24 -5 35 -15 35 -18 0 -20 -34 -4 -80 14 -40 58 -60 129 -60 l50 0 0 69 c0
73 16 105 49 99 13 -3 17 -20 21 -83 l5 -80 194 -3 c151 -2 199 1 222 12 24
12 30 12 40 0 17 -20 56 -17 79 6 27 27 27 103 0 148 -21 34 -23 36 -33 26z"/>
<path d="M5350 4908 c0 -30 -5 -59 -12 -66 -7 -7 -38 -12 -70 -12 -49 0 -63 4
-83 25 -16 15 -25 36 -25 55 0 16 -4 30 -10 30 -5 0 -10 -19 -10 -43 0 -65 31
-90 118 -95 93 -5 114 11 116 93 1 39 -3 60 -11 62 -9 3 -13 -11 -13 -49z"/>
<path d="M5488 4863 c-3 -91 -5 -99 -25 -108 -38 -16 -25 -39 14 -24 14 5 26
22 33 46 14 49 9 175 -7 180 -9 3 -13 -22 -15 -94z"/>
<path d="M6440 4874 c0 -88 -10 -124 -35 -124 -8 0 -15 -7 -15 -15 0 -8 3 -15
6 -15 11 0 49 23 56 34 12 17 10 206 -2 206 -6 0 -10 -35 -10 -86z"/>
<path d="M8990 4931 c0 -17 5 -33 10 -36 6 -4 10 8 10 29 0 20 -4 36 -10 36
-5 0 -10 -13 -10 -29z"/>
<path d="M2075 4897 c10 -15 20 -25 23 -22 3 3 -5 16 -17 28 l-23 22 17 -28z"/>
<path d="M8990 4813 c0 -28 3 -34 10 -23 13 20 13 60 0 60 -5 0 -10 -17 -10
-37z"/>
<path d="M2155 4810 c10 -11 20 -20 23 -20 3 0 -3 9 -13 20 -10 11 -20 20 -23
20 -3 0 3 -9 13 -20z"/>
<path d="M3115 4770 c-4 -6 -3 -16 3 -22 6 -6 12 -6 17 2 4 6 3 16 -3 22 -6 6
-12 6 -17 -2z"/>
<path d="M3155 4770 c-4 -6 -3 -16 3 -22 6 -6 12 -6 17 2 4 6 3 16 -3 22 -6 6
-12 6 -17 -2z"/>
<path d="M4177 4766 c-6 -15 1 -26 15 -26 11 0 10 27 -1 34 -5 3 -11 0 -14 -8z"/>
<path d="M4215 4770 c-7 -12 2 -30 16 -30 12 0 12 27 0 35 -5 3 -12 1 -16 -5z"/>
<path d="M6102 4768 c-5 -7 -13 -23 -16 -35 -7 -21 -4 -23 33 -23 23 0 41 5
41 10 0 6 -11 10 -25 10 -30 0 -33 20 -5 27 11 3 20 9 20 14 0 14 -36 11 -48
-3z"/>
<path d="M6815 4770 c-7 -12 2 -30 16 -30 12 0 12 27 0 35 -5 3 -12 1 -16 -5z"/>
<path d="M2235 4740 c10 -11 20 -20 23 -20 3 0 -3 9 -13 20 -10 11 -20 20 -23
20 -3 0 3 -9 13 -20z"/>
<path d="M8976 4724 c-9 -24 -7 -56 3 -50 11 7 20 66 10 66 -4 0 -10 -7 -13
-16z"/>
<path d="M8946 4611 c-18 -35 -19 -41 -7 -41 10 0 34 61 27 68 -3 2 -12 -10
-20 -27z"/>
<path d="M3226 4583 c-10 -10 -7 -273 3 -273 14 0 21 28 21 89 0 61 11 81 45
81 36 0 45 -20 45 -97 0 -42 4 -73 10 -73 18 0 16 156 -2 178 -9 10 -25 13
-55 9 l-43 -5 0 44 c0 41 -10 61 -24 47z"/>
<path d="M5856 4583 c-3 -3 -6 -25 -6 -48 l0 -41 -35 4 c-45 5 -71 -17 -80
-67 -6 -39 6 -83 29 -107 18 -17 62 -18 70 -1 5 10 7 10 12 0 3 -7 12 -13 20
-13 11 0 14 25 14 134 0 123 -6 157 -24 139z m-16 -122 c14 -27 13 -94 -2
-109 -32 -32 -78 0 -78 54 0 48 16 74 45 74 14 0 29 -8 35 -19z"/>
<path d="M6330 4541 l0 -49 -44 5 c-37 5 -46 2 -60 -18 -10 -14 -16 -43 -16
-74 0 -41 5 -56 23 -73 26 -25 56 -28 76 -9 11 10 14 10 18 0 3 -7 9 -13 14
-13 5 0 9 62 9 140 0 87 -4 140 -10 140 -5 0 -10 -22 -10 -49z m-16 -83 c31
-43 9 -118 -34 -118 -29 0 -54 44 -46 82 12 60 51 77 80 36z"/>
<path d="M6920 4541 l0 -49 -44 5 c-37 5 -46 2 -60 -18 -10 -14 -16 -43 -16
-74 0 -41 5 -56 23 -73 26 -25 56 -28 76 -9 11 10 14 10 18 0 3 -7 9 -13 14
-13 5 0 9 62 9 140 0 87 -4 140 -10 140 -5 0 -10 -22 -10 -49z m-20 -76 c7 -9
13 -33 13 -55 0 -44 -16 -70 -43 -70 -27 0 -45 28 -45 70 0 60 44 92 75 55z"/>
<path d="M3027 4574 c-13 -13 5 -24 39 -24 l34 0 0 -120 c0 -72 4 -120 10
-120 16 0 22 42 18 144 l-3 96 38 0 c26 0 37 4 37 15 0 12 -16 15 -83 15 -46
0 -87 -3 -90 -6z"/>
<path d="M3675 4567 c-3 -7 -4 -67 -3 -133 l3 -119 78 -3 c64 -2 77 0 77 13 0
12 -13 15 -66 15 l-65 0 3 48 3 47 53 3 c69 4 67 22 -3 22 l-55 0 0 45 0 44
68 3 c92 4 85 22 -11 26 -58 2 -79 -1 -82 -11z"/>
<path d="M4180 4565 c0 -8 5 -15 10 -15 6 0 10 7 10 15 0 8 -4 15 -10 15 -5 0
-10 -7 -10 -15z"/>
<path d="M5109 4567 c-65 -50 -38 -115 53 -131 44 -8 64 -35 48 -66 -14 -26
-55 -36 -95 -21 -60 21 -76 8 -24 -21 43 -25 95 -23 123 5 55 52 38 103 -43
127 -61 17 -82 40 -65 68 9 13 24 17 68 15 57 -2 71 8 37 27 -26 14 -82 12
-102 -3z"/>
<path d="M6400 4565 c0 -8 5 -15 10 -15 6 0 10 7 10 15 0 8 -4 15 -10 15 -5 0
-10 -7 -10 -15z"/>
<path d="M7047 4574 c-16 -16 -5 -24 33 -24 l40 0 0 -120 c0 -73 4 -120 10
-120 6 0 10 46 10 119 l0 120 35 3 c20 2 36 8 38 13 2 11 -155 20 -166 9z"/>
<path d="M4560 4526 c0 -13 -6 -27 -12 -30 -10 -5 -10 -7 0 -12 8 -4 12 -29
12 -72 1 -70 14 -102 44 -102 9 0 16 7 16 15 0 8 -7 15 -15 15 -12 0 -15 14
-15 70 0 56 3 70 15 70 8 0 15 5 15 10 0 6 -7 10 -15 10 -9 0 -15 9 -15 25 0
16 -6 25 -15 25 -9 0 -15 -9 -15 -24z"/>
<path d="M5290 4525 c0 -17 -6 -25 -17 -25 -17 -1 -17 -1 0 -14 13 -10 17 -28
17 -83 0 -71 10 -93 42 -93 24 0 23 26 -2 33 -17 4 -20 14 -20 71 0 52 3 66
15 66 8 0 15 4 15 9 0 5 -7 11 -15 15 -8 3 -15 15 -15 26 0 11 -4 20 -10 20
-5 0 -10 -11 -10 -25z"/>
<path d="M7580 4530 c0 -11 -7 -23 -15 -26 -8 -4 -15 -10 -15 -15 0 -5 7 -9
15 -9 12 0 15 -15 15 -73 0 -75 9 -97 42 -97 24 0 23 26 -2 33 -17 4 -20 14
-20 66 0 46 4 62 18 71 16 10 16 10 0 20 -10 6 -18 20 -18 30 0 11 -4 20 -10
20 -5 0 -10 -9 -10 -20z"/>
<path d="M8896 4508 c-18 -26 -20 -38 -6 -38 5 0 16 14 25 30 18 35 4 41 -19
8z"/>
<path d="M3421 4474 c-30 -38 -28 -94 5 -133 27 -33 70 -41 92 -19 20 20 13
27 -23 21 -39 -6 -65 9 -65 38 0 17 8 19 60 19 l60 0 0 30 c0 67 -88 96 -129
44z m87 -6 c7 -7 12 -20 12 -29 0 -14 -9 -17 -45 -17 -36 0 -45 3 -45 17 0 23
20 41 45 41 12 0 26 -5 33 -12z"/>
<path d="M3862 4408 c2 -62 7 -93 16 -96 9 -3 12 15 12 66 0 74 13 102 49 102
30 0 41 -22 41 -81 0 -61 7 -89 21 -89 5 0 9 31 9 69 0 73 14 101 49 101 32 0
41 -22 41 -98 0 -54 3 -73 13 -70 19 7 22 135 2 164 -17 26 -61 32 -97 13 -14
-8 -23 -8 -31 0 -15 15 -70 14 -85 -1 -9 -9 -12 -9 -12 0 0 7 -7 12 -15 12
-13 0 -15 -15 -13 -92z"/>
<path d="M4180 4405 c0 -57 4 -95 10 -95 6 0 10 38 10 95 0 57 -4 95 -10 95
-6 0 -10 -38 -10 -95z"/>
<path d="M4250 4405 c0 -78 3 -95 15 -95 12 0 15 15 15 73 0 78 9 97 46 97 13
0 26 5 29 10 9 14 -48 13 -63 -2 -9 -9 -12 -9 -12 0 0 7 -7 12 -15 12 -12 0
-15 -17 -15 -95z"/>
<path d="M4393 4493 c-30 -11 -10 -22 31 -17 39 6 45 4 56 -16 15 -29 5 -38
-50 -42 -36 -2 -47 -8 -59 -30 -15 -25 -14 -29 8 -52 26 -28 91 -37 91 -14 0
9 3 9 12 0 23 -23 28 -11 28 67 0 93 -12 111 -68 110 -20 0 -43 -3 -49 -6z
m92 -103 c13 -22 -15 -50 -51 -50 -36 0 -51 17 -40 45 6 17 81 21 91 5z"/>
<path d="M4676 4487 c-37 -27 -37 -117 0 -158 19 -21 73 -26 92 -7 21 21 13
28 -27 22 -33 -5 -41 -3 -55 17 -9 13 -16 27 -16 31 0 5 27 8 60 8 61 0 65 2
60 45 -5 48 -72 73 -114 42z m84 -27 c16 -30 4 -40 -43 -36 -30 2 -41 7 -39
17 10 42 63 54 82 19z"/>
<path d="M4842 4488 c-33 -33 -4 -88 45 -88 11 0 28 -6 38 -14 16 -12 17 -16
6 -30 -15 -18 -71 -22 -88 -5 -8 8 -13 8 -18 -1 -10 -16 25 -39 61 -40 35 0
74 31 74 60 0 27 -23 47 -64 54 -42 8 -53 21 -35 42 10 12 23 14 52 10 29 -5
38 -3 35 6 -6 17 -90 22 -106 6z"/>
<path d="M5397 4493 c-17 -16 -4 -23 31 -17 28 4 41 2 51 -10 22 -26 6 -46
-38 -46 -65 0 -91 -44 -52 -88 20 -24 75 -30 87 -11 4 8 9 7 15 -2 8 -12 11
-11 19 1 15 21 8 144 -9 164 -13 16 -91 23 -104 9z m93 -111 c0 -10 -5 -23
-12 -30 -17 -17 -63 -15 -78 3 -19 23 5 45 51 45 31 0 39 -4 39 -18z"/>
<path d="M5552 4408 c2 -62 7 -93 16 -96 9 -3 12 15 12 66 0 74 13 102 49 102
30 0 40 -22 43 -95 2 -43 8 -70 16 -73 19 -6 16 137 -4 166 -17 25 -71 31 -92
10 -9 -9 -12 -9 -12 0 0 7 -7 12 -15 12 -13 0 -15 -15 -13 -92z"/>
<path d="M5937 4493 c-16 -15 -5 -21 31 -16 27 4 42 1 51 -11 23 -28 6 -46
-44 -46 -39 0 -47 -4 -57 -26 -18 -38 7 -78 50 -82 19 -2 39 2 47 8 10 8 14 8
18 -2 4 -10 8 -10 17 2 14 20 7 144 -10 165 -13 15 -90 22 -103 8z m93 -111
c0 -26 -20 -42 -52 -42 -30 0 -44 19 -34 45 3 10 19 15 46 15 32 0 40 -4 40
-18z"/>
<path d="M6100 4403 c0 -55 4 -93 10 -93 11 0 12 9 12 80 -1 55 20 90 53 90
14 0 25 5 25 10 0 6 -22 9 -50 8 l-50 -2 0 -93z"/>
<path d="M6400 4405 c0 -57 4 -95 10 -95 6 0 10 38 10 95 0 57 -4 95 -10 95
-6 0 -10 -38 -10 -95z"/>
<path d="M6465 4490 c3 -5 24 -10 46 -10 21 0 39 -4 39 -10 0 -5 -20 -36 -45
-69 -62 -82 -61 -91 20 -91 51 0 65 3 65 15 0 11 -12 15 -45 15 -25 0 -45 3
-45 6 0 3 20 34 45 68 25 35 45 69 45 75 0 7 -24 11 -66 11 -41 0 -63 -4 -59
-10z"/>
<path d="M6641 4474 c-34 -43 -25 -118 18 -151 21 -16 64 -16 79 -1 20 20 13
27 -23 21 -39 -6 -65 9 -65 38 0 17 8 19 60 19 54 0 60 2 60 21 0 23 -18 60
-34 71 -26 18 -75 8 -95 -18z m89 -9 c21 -26 4 -45 -40 -45 -32 0 -40 4 -40
18 0 39 55 58 80 27z"/>
<path d="M7248 4490 c-41 -25 -42 -117 -2 -161 19 -21 74 -25 92 -7 21 21 13
29 -23 22 -27 -5 -41 -2 -55 11 -36 33 -25 45 40 45 61 0 65 2 60 45 -5 47
-66 71 -112 45z m77 -26 c24 -24 13 -39 -30 -42 -49 -4 -65 11 -40 38 22 24
48 26 70 4z"/>
<path d="M7412 4488 c-6 -6 -12 -25 -12 -40 0 -30 15 -40 73 -53 22 -4 28 -11
25 -28 -3 -20 -8 -22 -55 -21 -57 2 -63 -2 -35 -22 46 -35 126 -1 120 52 -3
25 -10 31 -50 44 -58 19 -64 25 -47 46 10 12 23 14 52 10 29 -5 38 -3 35 6 -6
17 -90 22 -106 6z"/>
<path d="M8836 4418 c-24 -34 -19 -44 9 -18 14 13 25 27 25 32 0 16 -19 8 -34
-14z"/>
<path d="M8630 4356 c0 -2 8 -10 18 -17 15 -13 16 -12 3 4 -13 16 -21 21 -21
13z"/>
<path d="M8760 4335 c-32 -34 -16 -46 16 -13 14 14 22 28 16 31 -5 4 -20 -5
-32 -18z"/>
<path d="M8675 4264 c-33 -26 -23 -32 18 -11 14 7 22 18 19 24 -5 7 -17 3 -37
-13z"/>
<path d="M8578 4218 c-16 -5 -28 -14 -28 -19 0 -11 0 -11 39 2 17 6 31 15 31
20 0 11 -7 10 -42 -3z"/>
<path d="M8460 4180 c-12 -8 -9 -10 12 -10 15 0 30 5 33 10 8 13 -25 13 -45 0z"/>
<path d="M8240 4160 c20 -13 50 -13 50 0 0 6 -15 10 -32 10 -25 0 -29 -3 -18
-10z"/>
<path d="M8340 4160 c0 -13 30 -13 50 0 11 7 7 10 -17 10 -18 0 -33 -4 -33
-10z"/>
<path d="M2371 4119 c-13 -11 -21 -23 -17 -26 4 -4 19 5 34 20 31 31 19 36
-17 6z"/>
<path d="M2291 4046 c-14 -14 -21 -29 -17 -33 9 -9 49 32 44 47 -2 6 -13 1
-27 -14z"/>
<path d="M1831 3975 c-1 -31 -11 -53 -41 -94 -28 -36 -40 -63 -40 -86 0 -43
39 -99 70 -103 24 -2 24 -2 5 10 -55 32 -61 101 -15 162 34 45 43 80 31 121
-9 30 -9 30 -10 -10z"/>
<path d="M8822 3960 c0 -19 2 -27 5 -17 2 9 2 25 0 35 -3 9 -5 1 -5 -18z"/>
<path d="M2217 3954 c-11 -14 -16 -28 -13 -31 6 -6 45 36 46 50 0 15 -15 6
-33 -19z"/>
<path d="M2156 3858 c-18 -25 -20 -38 -8 -38 10 0 35 50 28 57 -2 2 -11 -6
-20 -19z"/>
<path d="M8821 3864 c0 -11 3 -14 6 -6 3 7 2 16 -1 19 -3 4 -6 -2 -5 -13z"/>
<path d="M1727 3798 c-4 -15 -28 -48 -53 -73 -41 -40 -46 -49 -40 -78 9 -48
39 -67 100 -66 l51 2 -49 6 c-82 12 -97 54 -41 117 37 41 49 70 43 101 -3 14
-6 12 -11 -9z"/>
<path d="M2107 3763 c-2 -10 -8 -26 -12 -35 -11 -28 11 -21 23 7 7 14 12 30
12 35 0 17 -17 11 -23 -7z"/>
<path d="M8789 3744 c-5 -15 -8 -29 -5 -31 2 -2 8 10 14 26 13 38 5 41 -9 5z"/>
<path d="M1921 3658 c10 -23 8 -34 -16 -80 -16 -29 -35 -65 -42 -79 -7 -15
-25 -30 -41 -33 -15 -4 -35 -9 -46 -13 -16 -4 -15 0 8 29 27 36 34 82 15 94
-7 4 -9 0 -5 -12 4 -13 -8 -37 -38 -75 -41 -53 -47 -56 -136 -83 -50 -15 -90
-29 -88 -31 2 -2 39 5 83 16 44 10 86 17 93 14 6 -2 12 -1 12 4 0 5 28 14 63
22 34 7 64 14 67 15 3 0 12 3 20 7 8 3 74 24 145 46 149 46 150 52 2 16 -56
-14 -112 -27 -125 -30 -22 -5 -21 -3 13 47 38 57 45 102 20 134 -14 18 -15 17
-4 -8z"/>
<path d="M2070 3660 c0 -5 5 -10 10 -10 6 0 10 5 10 10 0 6 -4 10 -10 10 -5 0
-10 -4 -10 -10z"/>
<path d="M8745 3641 c-8 -17 -12 -31 -7 -31 10 0 35 50 28 57 -2 3 -12 -9 -21
-26z"/>
<path d="M8694 3546 c-9 -15 -14 -29 -12 -32 3 -2 13 7 22 22 10 14 15 28 13
31 -3 2 -13 -7 -23 -21z"/>
<path d="M2260 3485 l25 -28 -25 16 c-13 9 -38 16 -55 16 -23 -1 -25 -3 -8 -6
12 -2 34 -18 49 -35 26 -32 29 -65 9 -113 -8 -18 -7 -19 10 -5 16 13 18 13 13
0 -7 -23 -48 -40 -95 -40 -39 0 -44 -3 -62 -37 -10 -21 -34 -51 -52 -68 l-32
-30 6 25 c6 24 5 24 -8 6 -35 -46 -66 -76 -81 -76 -16 0 -15 4 19 55 l20 30
-31 -29 c-18 -16 -34 -38 -38 -48 -3 -11 -15 -18 -30 -18 -24 0 -24 0 -8 33
l16 32 -28 -26 c-28 -26 -74 -47 -74 -34 0 3 7 20 16 37 l17 32 -32 -27 c-49
-41 -67 -36 -38 11 41 66 41 68 -1 30 -49 -44 -58 -46 -89 -17 l-22 22 20 28
c24 35 14 37 -24 5 l-29 -23 44 -38 c103 -90 231 -114 338 -64 60 29 121 83
145 129 11 21 23 30 41 30 69 0 134 61 134 125 0 40 -29 95 -60 114 l-25 15
25 -29z"/>
<path d="M3680 3494 c-110 -21 -227 -64 -311 -115 -169 -102 -302 -274 -339
-439 -36 -162 18 -390 120 -503 145 -163 371 -214 715 -162 40 6 40 6 62 -44
31 -71 78 -102 201 -130 85 -19 107 -21 136 -11 20 6 38 15 41 20 3 5 -13 26
-35 46 -44 40 -71 85 -89 149 -12 43 -4 55 35 55 12 0 63 20 113 45 76 39 98
55 134 103 106 138 131 204 129 339 -2 148 -40 262 -127 378 -84 111 -240 209
-405 255 -103 28 -269 34 -380 14z m375 -44 c265 -69 453 -260 502 -510 33
-166 -14 -310 -141 -435 -75 -75 -135 -107 -226 -121 l-40 -7 0 -51 c0 -64 26
-121 76 -170 l39 -38 -77 5 c-57 3 -91 11 -132 31 -58 28 -123 94 -133 134 -5
21 -9 22 -52 15 -25 -4 -127 -8 -226 -7 -156 0 -190 3 -250 22 -165 51 -287
182 -331 355 -21 81 -14 227 15 318 73 230 313 420 599 474 102 19 272 13 377
-15z"/>
<path d="M3582 3231 c-73 -25 -109 -57 -142 -126 -23 -47 -26 -131 -7 -178 8
-18 12 -37 10 -43 -4 -12 26 -28 35 -19 3 3 0 5 -7 5 -7 0 -9 5 -6 10 5 8 11
7 21 -1 7 -6 12 -15 9 -19 -6 -9 25 -23 33 -15 3 3 -1 5 -9 5 -11 0 -11 2 1
10 13 8 12 10 -2 10 -30 0 -20 20 12 27 35 7 47 25 45 71 -1 17 3 32 9 32 5 0
7 3 3 6 -3 4 5 22 20 40 36 47 96 44 123 -6 10 -18 9 -19 -14 -9 -28 13 -76 4
-76 -14 0 -6 -9 -23 -19 -36 -10 -14 -17 -31 -14 -38 3 -7 1 -13 -5 -13 -5 0
-8 -13 -6 -29 4 -31 -17 -57 -39 -48 -8 3 -14 -1 -14 -9 0 -15 24 -19 43 -6 7
4 17 27 24 52 14 54 54 125 74 133 7 3 23 -1 34 -9 19 -13 20 -18 8 -52 -8
-25 -22 -42 -44 -52 -37 -18 -38 -25 -13 -105 30 -98 52 -145 68 -145 8 0 26
-9 40 -20 14 -11 37 -20 52 -20 29 0 107 42 104 56 -1 5 -14 37 -28 72 l-26
63 45 50 c56 62 74 129 55 205 -17 65 -93 143 -163 167 -64 22 -167 21 -234
-2z m189 -25 c85 -38 119 -86 119 -168 0 -52 -25 -103 -67 -136 -38 -31 -40
-44 -13 -103 26 -59 25 -85 -4 -105 -47 -30 -65 -17 -97 70 -16 43 -33 84 -39
91 -8 10 -6 15 10 20 12 4 34 25 51 47 51 71 33 147 -41 178 -27 11 -37 11
-65 -3 -47 -22 -69 -61 -71 -121 -2 -50 -2 -51 -43 -66 -57 -20 -66 -8 -66 89
0 69 3 83 30 126 60 98 183 131 296 81z m98 -23 c69 -51 111 -113 77 -113 -5
0 -3 -6 6 -12 11 -9 15 -26 13 -58 -1 -25 -3 -46 -5 -47 -1 -2 -3 -7 -4 -13 0
-5 -8 -18 -17 -28 -8 -10 -18 -26 -22 -35 -3 -9 -11 -17 -17 -17 -5 0 -10 -7
-10 -15 0 -8 -6 -15 -14 -15 -8 0 -13 -8 -11 -17 2 -10 4 -18 5 -18 1 0 3 -8
5 -18 2 -10 7 -26 11 -35 4 -9 8 -20 8 -24 1 -3 4 -10 9 -14 23 -24 -33 -61
-75 -49 -17 5 -19 4 -8 -4 22 -15 3 -26 -25 -13 -29 13 -34 32 -6 25 27 -7 73
45 64 72 -3 11 -7 28 -8 39 -1 10 -11 29 -24 42 -15 15 -18 25 -10 29 8 6 8 9
-1 15 -8 5 -2 11 17 18 22 7 37 25 58 68 16 33 28 64 27 71 -2 7 6 10 20 7 23
-5 23 -4 -1 6 -14 6 -21 16 -17 25 3 8 1 17 -5 20 -5 4 -7 11 -4 16 4 5 1 9
-5 9 -7 0 -10 7 -7 15 4 8 2 17 -4 20 -5 4 -7 11 -4 16 4 5 0 9 -7 9 -14 1
-58 34 -58 44 0 11 13 6 49 -21z"/>
<path d="M3857 2596 c-61 -22 -69 -32 -53 -71 8 -18 12 -35 10 -38 -3 -2 11
-16 29 -30 23 -17 38 -23 48 -16 8 5 24 9 35 9 65 0 89 81 38 129 -15 14 -23
20 -19 13 5 -10 2 -13 -11 -10 -11 2 -18 10 -16 16 3 15 -13 15 -61 -2z m47
-53 c-14 -22 -60 -35 -73 -19 -20 24 -15 39 19 51 29 11 38 10 50 -1 11 -11
12 -19 4 -31z m53 7 c-3 -13 0 -20 9 -20 8 0 14 -4 14 -10 0 -5 -4 -10 -10
-10 -5 0 -9 -5 -7 -12 1 -6 -6 -14 -17 -16 -11 -2 -16 0 -12 7 4 6 0 11 -8 11
-18 0 -21 16 -5 25 6 4 8 13 5 20 -6 16 2 25 22 25 9 0 13 -7 9 -20z m-57 -51
c0 -5 -4 -7 -10 -4 -5 3 -10 1 -10 -4 0 -6 9 -11 21 -11 19 0 19 -1 4 -16 -17
-18 -51 -11 -39 8 5 8 2 9 -9 5 -25 -10 -20 8 6 21 29 14 37 14 37 1z"/>
<path d="M8638 3455 c-20 -26 -22 -35 -10 -35 9 0 35 50 30 55 -2 2 -11 -7
-20 -20z"/>
<path d="M2172 3398 c-15 -57 -16 -98 -2 -98 6 0 9 3 8 8 -1 4 2 23 6 43 4 20
6 49 4 65 -3 26 -4 24 -16 -18z"/>
<path d="M8570 3361 c-12 -17 -17 -31 -11 -31 13 0 46 48 38 56 -2 3 -15 -9
-27 -25z"/>
<path d="M1550 3324 c0 -14 58 -104 66 -104 4 0 5 3 1 6 -3 4 1 20 10 37 l16
31 -28 -18 c-24 -16 -27 -16 -22 -2 22 53 22 52 3 36 -16 -13 -20 -12 -32 5
-8 10 -14 14 -14 9z"/>
<path d="M8500 3275 c-13 -14 -19 -25 -13 -25 12 0 48 38 41 45 -2 3 -15 -6
-28 -20z"/>
<path d="M6811 3271 c-30 -30 -27 -57 9 -70 17 -5 30 -12 30 -14 0 -2 -25 -21
-55 -42 -31 -21 -60 -45 -64 -53 -8 -13 -12 -14 -24 -3 -25 20 -56 9 -79 -29
l-20 -35 26 33 c30 35 60 41 75 15 9 -16 11 -15 29 8 11 13 44 38 74 53 29 16
54 30 56 31 2 2 0 14 -4 29 -4 16 -13 26 -24 26 -29 0 -33 17 -8 34 25 18 68
21 68 6 0 -6 -5 -18 -11 -29 -8 -12 -9 -24 -2 -35 14 -24 193 -30 193 -5 0 8
6 21 13 29 10 12 9 12 -5 1 -10 -7 -18 -19 -18 -26 0 -10 -10 -11 -42 -3 -24
5 -60 8 -80 6 -47 -3 -56 6 -33 33 27 29 9 53 -43 57 -31 2 -46 -2 -61 -17z"/>
<path d="M1708 3202 c-31 -18 -37 -35 -12 -30 9 2 23 13 32 26 17 26 15 27
-20 4z"/>
<path d="M8419 3188 l-12 -23 24 20 c13 11 26 21 28 22 2 2 -3 3 -12 3 -9 0
-22 -10 -28 -22z"/>
<path d="M6873 3124 c-54 -20 -119 -83 -146 -142 -46 -100 -17 -233 65 -307
l33 -30 -31 35 c-53 59 -68 98 -69 175 0 59 5 78 29 123 79 142 259 176 395
75 l36 -26 -25 27 c-67 74 -192 105 -287 70z"/>
<path d="M8341 3120 c-30 -26 -14 -26 19 0 14 11 21 20 15 19 -5 0 -21 -9 -34
-19z"/>
<path d="M8249 3050 l-24 -21 33 16 c31 15 41 25 23 25 -5 0 -19 -9 -32 -20z"/>
<path d="M6590 3000 c-6 -11 -8 -20 -6 -20 3 0 10 9 16 20 6 11 8 20 6 20 -3
0 -10 -9 -16 -20z"/>
<path d="M8149 2993 c-13 -15 -12 -15 11 -3 34 17 36 20 18 20 -9 0 -22 -7
-29 -17z"/>
<path d="M8055 2960 c-13 -6 -15 -9 -5 -9 8 0 22 4 30 9 18 12 2 12 -25 0z"/>
<path d="M6836 2940 c5 -5 37 -29 72 -53 l64 -44 93 36 c51 20 92 37 90 39 -2
2 -42 -4 -89 -14 l-86 -18 -76 31 c-42 18 -73 28 -68 23z"/>
<path d="M6592 2924 c9 -9 21 -15 27 -13 6 2 -2 10 -17 17 -25 11 -25 11 -10
-4z"/>
<path d="M7291 2924 c0 -11 3 -14 6 -6 3 7 2 16 -1 19 -3 4 -6 -2 -5 -13z"/>
<path d="M7933 2933 c9 -2 23 -2 30 0 6 3 -1 5 -18 5 -16 0 -22 -2 -12 -5z"/>
<path d="M6642 2860 c0 -19 2 -27 5 -17 2 9 2 25 0 35 -3 9 -5 1 -5 -18z"/>
<path d="M7297 2860 c-4 -14 -7 -35 -7 -47 0 -12 -15 -51 -34 -86 l-34 -65 29
-28 c53 -51 32 -74 -23 -25 l-32 28 -45 -29 c-61 -38 -141 -61 -204 -56 l-51
3 -11 -45 c-7 -30 -17 -46 -29 -48 -14 -3 -17 0 -12 13 3 9 9 34 12 56 5 32 3
40 -12 45 -74 27 -151 115 -179 207 -10 31 -14 36 -14 17 -2 -64 83 -187 154
-226 31 -16 35 -22 29 -44 -13 -45 -10 -82 9 -94 25 -16 50 3 63 49 l10 39 71
2 c70 2 148 27 185 60 15 15 20 14 52 -11 66 -50 114 0 57 59 l-31 32 20 38
c21 43 43 137 38 164 -3 13 -5 11 -11 -8z"/>
<path d="M7231 2834 c0 -11 3 -14 6 -6 3 7 2 16 -1 19 -3 4 -6 -2 -5 -13z"/>
<path d="M7206 2760 c-23 -52 -96 -115 -158 -136 -48 -16 -124 -16 -173 0 -11
3 -4 -1 15 -10 50 -23 145 -22 200 3 54 24 113 86 130 137 16 51 8 55 -14 6z"/>
<path d="M6634 2695 c-10 -8 -14 -14 -9 -15 15 0 40 18 34 24 -3 3 -14 -1 -25
-9z"/>
<path d="M6540 2650 c-14 -11 -22 -20 -18 -20 14 0 58 23 58 32 0 13 -13 9
-40 -12z"/>
<path d="M6457 2602 c-26 -16 -36 -32 -19 -32 12 1 57 38 52 44 -3 2 -18 -3
-33 -12z"/>
<path d="M6359 2530 c-13 -10 -19 -19 -13 -20 7 0 22 9 35 20 13 10 19 19 13
20 -7 0 -22 -9 -35 -20z"/>
<path d="M6290 2464 c0 -8 5 -12 10 -9 6 3 10 10 10 16 0 5 -4 9 -10 9 -5 0
-10 -7 -10 -16z"/>
</g>
</svg>
